HIERARCHY
ROOT hip
{
  OFFSET 0.0670092 88.5999 -15.0588
  CHANNELS 6 Xposition Yposition Zposition Zrotation Xrotation Yrotation
  JOINT abdomen
  {
    OFFSET 0 6.09653 0.699602
    CHANNELS 3 Zrotation Xrotation Yrotation
    JOINT chest
    {
      OFFSET 0 2.49857 -0.699602
      CHANNELS 3 Zrotation Xrotation Yrotation
      JOINT lCollar
      {
        OFFSET 1.49915 11.2936 -1.69903
        CHANNELS 3 Zrotation Xrotation Yrotation
        JOINT lShldr
        {
          OFFSET 4.89721 -0.299833 0.799545
          CHANNELS 3 Zrotation Xrotation Yrotation
          JOINT lForeArm
          {
            OFFSET 12.4216 -1.19922 0.931564
            CHANNELS 3 Zrotation Xrotation Yrotation
            JOINT lHand
            {
              OFFSET 9.86568 0.0998482 3.66582
              CHANNELS 3 Zrotation Xrotation Yrotation
              JOINT lThumb1
              {
                OFFSET 0.399772 -0.399773 1.19932
                CHANNELS 3 Zrotation Xrotation Yrotation
                JOINT lThumb2
                {
                  OFFSET 0.99813 0 1.47145
                  CHANNELS 3 Zrotation Xrotation Yrotation
                  End Site
                  {
                    OFFSET 0.97784 -0.27884 0.829828
                  }
                }
              }
              JOINT lIndex1
              {
                OFFSET 2.69846 0.399775 2.09881
                CHANNELS 3 Zrotation Xrotation Yrotation
                JOINT lIndex2
                {
                  OFFSET 1.33823 -0.200884 0.6843
                  CHANNELS 3 Zrotation Xrotation Yrotation
                  End Site
                  {
                    OFFSET 0.760567 0.00099574 0.415074
                  }
                }
              }
              JOINT lRing1
              {
                OFFSET 3.39806 0.399773 0.299829
                CHANNELS 3 Zrotation Xrotation Yrotation
                JOINT lRing2
                {
                  OFFSET 1.29926 -0.199886 0.399772
                  CHANNELS 3 Zrotation Xrotation Yrotation
                  End Site
                  {
                    OFFSET 0.899489 -0.0999425 0.199886
                  }
                }
              }
              JOINT lMid1
              {
                OFFSET 2.99829 0.499714 1.09937
                CHANNELS 3 Zrotation Xrotation Yrotation
                JOINT lMid2
                {
                  OFFSET 1.45827 -0.0999388 0.600149
                  CHANNELS 3 Zrotation Xrotation Yrotation
                  End Site
                  {
                    OFFSET 1.04031 -0.0999473 0.399282
                  }
                }
              }
              JOINT lPinky1
              {
                OFFSET 3.29812 0.0999421 -0.399772
                CHANNELS 3 Zrotation Xrotation Yrotation
                JOINT lPinky2
                {
                  OFFSET 0.899488 -0.0999427 0
                  CHANNELS 3 Zrotation Xrotation Yrotation
                  End Site
                  {
                    OFFSET 0.999427 -0.0999418 0
                  }
                }
              }
            }
          }
        }
      }
      JOINT rCollar
      {
        OFFSET -1.49915 11.2936 -1.69903
        CHANNELS 3 Zrotation Xrotation Yrotation
        JOINT rShldr
        {
          OFFSET -4.89721 -0.299829 0.799545
          CHANNELS 3 Zrotation Xrotation Yrotation
          JOINT rForeArm
          {
            OFFSET -12.4216 -1.19922 0.931564
            CHANNELS 3 Zrotation Xrotation Yrotation
            JOINT rHand
            {
              OFFSET -9.86568 0.0998477 3.66582
              CHANNELS 3 Zrotation Xrotation Yrotation
              JOINT rIndex1
              {
                OFFSET -2.69847 0.399775 2.09881
                CHANNELS 3 Zrotation Xrotation Yrotation
                JOINT rIndex2
                {
                  OFFSET -1.33823 -0.200883 0.6843
                  CHANNELS 3 Zrotation Xrotation Yrotation
                  End Site
                  {
                    OFFSET -0.760569 0.00099747 0.415074
                  }
                }
              }
              JOINT rThumb1
              {
                OFFSET -0.399773 -0.39977 1.19932
                CHANNELS 3 Zrotation Xrotation Yrotation
                JOINT rThumb2
                {
                  OFFSET -0.998132 0 1.47145
                  CHANNELS 3 Zrotation Xrotation Yrotation
                  End Site
                  {
                    OFFSET -0.977841 -0.278837 0.829828
                  }
                }
              }
              JOINT rMid1
              {
                OFFSET -2.99829 0.499717 1.09937
                CHANNELS 3 Zrotation Xrotation Yrotation
                JOINT rMid2
                {
                  OFFSET -1.45827 -0.0999391 0.600149
                  CHANNELS 3 Zrotation Xrotation Yrotation
                  End Site
                  {
                    OFFSET -1.0403 -0.0999474 0.399282
                  }
                }
              }
              JOINT rRing1
              {
                OFFSET -3.39807 0.399775 0.299829
                CHANNELS 3 Zrotation Xrotation Yrotation
                JOINT rRing2
                {
                  OFFSET -1.29926 -0.199888 0.399772
                  CHANNELS 3 Zrotation Xrotation Yrotation
                  End Site
                  {
                    OFFSET -0.899487 -0.0999402 0.199886
                  }
                }
              }
              JOINT rPinky1
              {
                OFFSET -3.29812 0.0999423 -0.399772
                CHANNELS 3 Zrotation Xrotation Yrotation
                JOINT rPinky2
                {
                  OFFSET -0.899492 -0.0999405 0
                  CHANNELS 3 Zrotation Xrotation Yrotation
                  End Site
                  {
                    OFFSET -0.999429 -0.0999421 0
                  }
                }
              }
            }
          }
        }
      }
      JOINT neck
      {
        OFFSET 0 12.4929 -0.499715
        CHANNELS 3 Zrotation Xrotation Yrotation
        JOINT head
        {
          OFFSET 0 3.59795 0.299829
          CHANNELS 3 Zrotation Xrotation Yrotation
          JOINT leftEye
          {
            OFFSET 1.19932 3.69789 3.19818
            CHANNELS 3 Zrotation Xrotation Yrotation
            End Site
            {
              OFFSET 0 0 0
            }
          }
          JOINT rightEye
          {
            OFFSET -1.19932 3.69789 3.19818
            CHANNELS 3 Zrotation Xrotation Yrotation
            End Site
            {
              OFFSET 0 0 0
            }
          }
        }
      }
    }
  }
  JOINT lButtock
  {
    OFFSET 4.19761 -0.599656 -0.299829
    CHANNELS 3 Zrotation Xrotation Yrotation
    JOINT lThigh
    {
      OFFSET 0 -1.49914 0
      CHANNELS 3 Zrotation Xrotation Yrotation
      JOINT lShin
      {
        OFFSET -0.699602 -17.6899 -1.09937
        CHANNELS 3 Zrotation Xrotation Yrotation
        JOINT lFoot
        {
          OFFSET 0.699602 -18.0897 -0.699602
          CHANNELS 3 Zrotation Xrotation Yrotation
          End Site
          {
            OFFSET 0 -2.0988 5.59681
          }
        }
      }
    }
  }
  JOINT rButtock
  {
    OFFSET -4.19761 -0.599656 -0.299829
    CHANNELS 3 Zrotation Xrotation Yrotation
    JOINT rThigh
    {
      OFFSET 0 -1.49915 0
      CHANNELS 3 Zrotation Xrotation Yrotation
      JOINT rShin
      {
        OFFSET 0.699602 -17.6899 -1.09938
        CHANNELS 3 Zrotation Xrotation Yrotation
        JOINT rFoot
        {
          OFFSET -0.699602 -18.0897 -0.699602
          CHANNELS 3 Zrotation Xrotation Yrotation
          End Site
          {
            OFFSET 0 -2.09881 5.59681
          }
        }
      }
    }
  }
}
MOTION
Frames:	7
Frame Time:	0.0333333
0.0670092 88.5999 -15.0588 -0.723151 -9.96037 -2.15042 -0.00975517 -0.00975351 -0.00975351 -3.58727 9.36369 0.824824 -6.54081 2.01217 -18.7836 -65.1888 14.6597 5.1302 55.5078 4.80373 -67.6237 -8.56608 2.36495 8.71853 -1.87818 1.06148 -28.0917 9.40787 -7.94586 0.599069 -1.9021 1.09707 -28.0878 -8.62296 -0.0232223 1.79819 -1.90886 1.07496 -28.0899 -2.42852 -0.502379 -4.43241 -1.91292 1.08254 -28.0857 0.181554 0.424301 -1.45108 -1.89057 1.0819 -28.0686 -0.629934 -0.0099583 0.00100886 3.21432 0.308317 9.41935 70.2844 26.9087 -3.63122 -57.5703 7.84294 66.2408 13.7417 4.64949 -3.28821 1.84104 1.04198 28.023 8.61171 -0.00190224 -1.79828 1.8765 1.0053 28.0257 -9.40282 -7.91099 -0.69994 1.83855 1.02151 28.0115 -0.243675 0.394432 1.44876 1.84463 1.02332 28.0095 2.42704 -0.497593 4.4329 1.83969 1.02684 28.0275 0.629422 -0.00953168 -0.00095246 3.47069 -9.40809 -0.264925 -14.3481 -16.8144 -28.34 0 0 0 0 0 0 -0.00975517 -0.00983547 -0.00969887 6.94104 -69.7087 7.02908 -14.7118 77.0248 2.40726 -1.34635 2.71493 0.188907 -0.00975517 -0.00969887 -0.00983547 -4.94548 -70.048 -1.23482 13.6505 76.1682 -1.60192 6.1464 3.89276 -0.59807 
0.0643192 88.5964 -15.0595 -0.713386 -9.96036 -2.16019 -0.00975517 -0.00975351 -0.00975351 -3.53845 9.34419 0.805242 -6.52322 2.00648 -18.7666 -65.2539 14.6858 5.05758 55.5825 4.8943 -67.5808 -8.5078 2.34879 8.71101 -1.87818 1.06148 -28.0917 9.40787 -7.94586 0.599069 -1.9021 1.09707 -28.0878 -8.62296 -0.0232223 1.79819 -1.90886 1.07496 -28.0899 -2.42852 -0.502379 -4.43241 -1.91292 1.08254 -28.0857 0.181554 0.424301 -1.45108 -1.89057 1.0819 -28.0686 -0.629934 -0.0099583 0.00100886 3.21278 0.306486 9.38225 70.2843 27.0834 -3.51389 -57.5755 7.84325 66.2415 13.7788 4.6369 -3.46394 1.84104 1.04198 28.023 8.61171 -0.00190224 -1.79828 1.8765 1.0053 28.0257 -9.40282 -7.91099 -0.69994 1.83855 1.02151 28.0115 -0.243675 0.394432 1.44876 1.84463 1.02332 28.0095 2.42704 -0.497593 4.4329 1.83969 1.02684 28.0275 0.629422 -0.00953168 -0.00095246 3.4445 -9.37895 -0.238323 -14.2766 -16.8468 -28.3197 0 0 0 0 0 0 -0.00975517 -0.00983547 -0.00969887 6.59018 -69.7381 6.54957 -14.6963 77.0359 2.57497 -1.52486 2.67571 0.198012 -0.00975517 -0.00969887 -0.00983547 -4.27097 -70.0885 -0.363793 13.6368 76.1888 -1.81478 6.21887 3.90262 -0.604286 
0.061796 88.5935 -15.0613 -0.703623 -9.97012 -2.16996 -0.00975517 -0.00975351 -0.00975351 -3.48962 9.33444 0.785664 -6.5306 2.00742 -18.7545 -65.2885 14.7259 4.99232 55.8381 4.96506 -67.5666 -8.48322 2.34761 8.64517 -1.87818 1.06148 -28.0917 9.40787 -7.94586 0.599069 -1.9021 1.09707 -28.0878 -8.62296 -0.0232223 1.79819 -1.90886 1.07496 -28.0899 -2.42852 -0.502379 -4.43241 -1.91292 1.08254 -28.0857 0.181554 0.424301 -1.45108 -1.89057 1.0819 -28.0686 -0.629934 -0.0099583 0.00100886 3.19967 0.305106 9.40071 70.2811 27.2515 -3.44078 -57.5898 7.83686 66.2469 13.725 4.58971 -3.6638 1.84104 1.04198 28.023 8.61171 -0.00190224 -1.79828 1.8765 1.0053 28.0257 -9.40282 -7.91099 -0.69994 1.83855 1.02151 28.0115 -0.243675 0.394432 1.44876 1.84463 1.02332 28.0095 2.42704 -0.497593 4.4329 1.83969 1.02684 28.0275 0.629422 -0.00953168 -0.00095246 3.39647 -9.36936 -0.231151 -14.1912 -16.8716 -28.2732 0 0 0 0 0 0 -0.00975517 -0.00983547 -0.00969887 6.34107 -69.7675 6.21163 -14.6882 77.0464 2.69381 -1.67325 2.63677 0.205153 -0.00975517 -0.00969887 -0.00983547 -3.65232 -70.1095 0.452541 13.6104 76.1902 -1.99095 6.34922 3.91292 -0.614801 
0.0582521 88.5879 -15.0629 -0.674324 -9.96036 -2.16019 -0.00975517 -0.00975351 -0.00975351 -3.47009 9.31493 0.766108 -6.54945 2.01318 -18.7682 -65.2799 14.7612 4.94187 55.8287 4.9986 -67.5474 -8.4739 2.3449 8.64525 -1.87818 1.06148 -28.0917 9.40787 -7.94586 0.599069 -1.9021 1.09707 -28.0878 -8.62296 -0.0232223 1.79819 -1.90886 1.07496 -28.0899 -2.42852 -0.502379 -4.43241 -1.91292 1.08254 -28.0857 0.181554 0.424301 -1.45108 -1.89057 1.0819 -28.0686 -0.629934 -0.0099583 0.00100886 3.17834 0.301381 9.39594 70.2739 27.4289 -3.34745 -57.4765 7.84438 66.2254 13.706 4.54507 -3.92999 1.84104 1.04198 28.023 8.61171 -0.00190224 -1.79828 1.8765 1.0053 28.0257 -9.40282 -7.91099 -0.69994 1.83855 1.02151 28.0115 -0.243675 0.394432 1.44876 1.84463 1.02332 28.0095 2.42704 -0.497593 4.4329 1.83969 1.02684 28.0275 0.629422 -0.00953168 -0.00095246 3.37791 -9.35967 -0.222692 -14.1492 -16.9133 -28.2475 0 0 0 0 0 0 -0.00975517 -0.00983547 -0.00969887 6.12674 -69.7965 5.97014 -14.6975 77.0655 2.76599 -1.73274 2.63676 0.208826 -0.00975517 -0.00969887 -0.00983547 -3.32032 -70.1497 0.890683 13.6095 76.2103 -2.11784 6.32187 3.92339 -0.613779 
0.0553586 88.5854 -15.0637 -0.654794 -9.95059 -2.16995 -0.00975517 -0.00975351 -0.00975351 -3.44079 9.29542 0.746543 -6.52044 2.00423 -18.7458 -65.3246 14.8102 4.8967 55.7275 5.03445 -67.5179 -8.44476 2.33817 8.62616 -1.87818 1.06148 -28.0917 9.40787 -7.94586 0.599069 -1.9021 1.09707 -28.0878 -8.62296 -0.0232223 1.79819 -1.90886 1.07496 -28.0899 -2.42852 -0.502379 -4.43241 -1.91292 1.08254 -28.0857 0.181554 0.424301 -1.45108 -1.89057 1.0819 -28.0686 -0.629934 -0.0099583 0.00100886 3.17834 0.301381 9.39594 70.2537 27.5746 -3.26673 -57.4169 7.83795 66.2193 13.6999 4.4995 -4.23418 1.84104 1.04198 28.023 8.61171 -0.00190224 -1.79828 1.8765 1.0053 28.0257 -9.40282 -7.91099 -0.69994 1.83855 1.02151 28.0115 -0.243675 0.394432 1.44876 1.84463 1.02332 28.0095 2.42704 -0.497593 4.4329 1.83969 1.02684 28.0275 0.629422 -0.00953168 -0.00095246 3.35063 -9.34027 -0.205332 -14.0768 -16.9559 -28.2173 0 0 0 0 0 0 -0.00975517 -0.00983547 -0.00969887 6.04326 -69.8258 5.86625 -14.691 77.0659 2.8067 -1.76277 2.62699 0.210153 -0.00975517 -0.00969887 -0.00983547 -3.22857 -70.1792 1.01098 13.6309 76.2391 -2.1567 6.30263 3.95263 -0.615107 
0.0484331 88.5817 -15.0655 -0.654796 -9.96036 -2.17972 -0.00975517 -0.00975351 -0.00975351 -3.43103 9.31495 0.746544 -6.46997 1.99289 -18.7633 -65.3564 14.7872 4.83704 55.8176 5.10886 -67.4862 -8.44735 2.35033 8.499 -1.87818 1.06148 -28.0917 9.40787 -7.94586 0.599069 -1.9021 1.09707 -28.0878 -8.62296 -0.0232223 1.79819 -1.90886 1.07496 -28.0899 -2.42852 -0.502379 -4.43241 -1.91292 1.08254 -28.0857 0.181554 0.424301 -1.45108 -1.89057 1.0819 -28.0686 -0.629934 -0.0099583 0.00100886 3.17983 0.303331 9.43635 70.2542 27.6013 -3.2424 -57.2673 7.81532 66.2074 13.7344 4.46209 -4.57631 1.84104 1.04198 28.023 8.61171 -0.00190224 -1.79828 1.8765 1.0053 28.0257 -9.40282 -7.91099 -0.69994 1.83855 1.02151 28.0115 -0.243675 0.394432 1.44876 1.84463 1.02332 28.0095 2.42704 -0.497593 4.4329 1.83969 1.02684 28.0275 0.629422 -0.00953168 -0.00095246 3.33971 -9.35004 -0.215068 -14.0037 -16.9891 -28.1845 0 0 0 0 0 0 -0.00975517 -0.00983547 -0.00969887 6.18261 -69.8258 6.02698 -14.7235 77.0942 2.80504 -1.81068 2.62723 0.21312 -0.00975517 -0.00969887 -0.00983547 -3.40262 -70.1786 0.737372 13.6685 76.2664 -2.08395 6.09566 3.96317 -0.600829 
0.0448663 88.5768 -15.0656 -0.635265 -9.96036 -2.17973 -0.00975517 -0.00975351 -0.00975351 -3.4115 9.31496 0.746529 -6.46325 1.98787 -18.7186 -65.361 14.8101 4.80683 55.6274 5.11184 -67.4655 -8.48324 2.36442 8.45858 -1.87818 1.06148 -28.0917 9.40787 -7.94586 0.599069 -1.9021 1.09707 -28.0878 -8.62296 -0.0232223 1.79819 -1.90886 1.07496 -28.0899 -2.42852 -0.502379 -4.43241 -1.91292 1.08254 -28.0857 0.181554 0.424301 -1.45108 -1.89057 1.0819 -28.0686 -0.629934 -0.0099583 0.00100886 3.16962 0.299809 9.3928 70.2727 27.6418 -3.22839 -57.1014 7.78207 66.1984 13.747 4.4214 -4.88995 1.84104 1.04198 28.023 8.61171 -0.00190224 -1.79828 1.8765 1.0053 28.0257 -9.40282 -7.91099 -0.69994 1.83855 1.02151 28.0115 -0.243675 0.394432 1.44876 1.84463 1.02332 28.0095 2.42704 -0.497593 4.4329 1.83969 1.02684 28.0275 0.629422 -0.00953168 -0.00095246 3.32006 -9.35009 -0.215911 -13.9903 -17.0306 -28.151 0 0 0 0 0 0 -0.00975517 -0.00983547 -0.00969887 6.39471 -69.8253 6.31926 -14.7663 77.1224 2.74158 -1.77979 2.62646 0.211174 -0.00975517 -0.00969887 -0.00983547 -3.86609 -70.2072 0.132595 13.7354 76.3128 -1.94626 5.91663 4.00211 -0.591148 
